<svg xmlns="http://www.w3.org/2000/svg" xmlns:xlink="http://www.w3.org/1999/xlink" width="500" zoomAndPan="magnify" viewBox="0 0 375 374.999991" height="500" preserveAspectRatio="xMidYMid meet" version="1.0"><defs><g/><clipPath id="631de8c08f"><path d="M 43.578125 1.78125 L 331.957031 1.78125 L 331.957031 373.039062 L 43.578125 373.039062 Z M 43.578125 1.78125 " clip-rule="nonzero"/></clipPath><clipPath id="d0934f260f"><path d="M 113.574219 199.136719 L 275.496094 199.136719 L 275.496094 323.828125 L 113.574219 323.828125 Z M 113.574219 199.136719 " clip-rule="nonzero"/></clipPath></defs><g clip-path="url(#631de8c08f)"><path fill="#000000" d="M 301.046875 145.253906 L 301.046875 114.792969 C 301.046875 52.492188 250.222656 1.78125 187.777344 1.78125 C 125.332031 1.78125 74.488281 52.480469 74.488281 114.792969 L 74.488281 145.253906 C 57.386719 145.714844 43.644531 159.613281 43.644531 176.789062 L 43.644531 341.414062 C 43.644531 342.449219 43.695312 343.480469 43.796875 344.511719 C 43.898438 345.542969 44.050781 346.566406 44.253906 347.582031 C 44.457031 348.597656 44.707031 349.601562 45.007812 350.59375 C 45.3125 351.585938 45.660156 352.558594 46.058594 353.515625 C 46.453125 354.472656 46.898438 355.40625 47.386719 356.320312 C 47.875 357.234375 48.410156 358.121094 48.984375 358.984375 C 49.5625 359.84375 50.179688 360.675781 50.839844 361.476562 C 51.496094 362.277344 52.191406 363.042969 52.925781 363.773438 C 53.660156 364.507812 54.429688 365.203125 55.230469 365.859375 C 56.035156 366.515625 56.867188 367.132812 57.730469 367.707031 C 58.59375 368.285156 59.480469 368.816406 60.398438 369.304688 C 61.3125 369.792969 62.25 370.234375 63.210938 370.632812 C 64.167969 371.027344 65.144531 371.375 66.136719 371.675781 C 67.132812 371.976562 68.136719 372.230469 69.15625 372.429688 C 70.171875 372.632812 71.199219 372.785156 72.230469 372.886719 C 73.265625 372.988281 74.300781 373.039062 75.339844 373.039062 L 300.199219 373.039062 C 301.234375 373.039062 302.273438 372.988281 303.304688 372.886719 C 304.339844 372.785156 305.363281 372.632812 306.382812 372.429688 C 307.398438 372.230469 308.40625 371.976562 309.398438 371.675781 C 310.390625 371.375 311.367188 371.027344 312.328125 370.632812 C 313.285156 370.234375 314.222656 369.792969 315.140625 369.304688 C 316.054688 368.816406 316.945312 368.285156 317.808594 367.710938 C 318.671875 367.132812 319.503906 366.519531 320.304688 365.859375 C 321.109375 365.203125 321.878906 364.507812 322.609375 363.777344 C 323.34375 363.042969 324.042969 362.277344 324.699219 361.476562 C 325.359375 360.675781 325.976562 359.847656 326.554688 358.984375 C 327.128906 358.125 327.664062 357.238281 328.152344 356.324219 C 328.640625 355.410156 329.085938 354.476562 329.484375 353.519531 C 329.878906 352.5625 330.230469 351.585938 330.53125 350.597656 C 330.832031 349.605469 331.085938 348.601562 331.285156 347.585938 C 331.488281 346.570312 331.640625 345.546875 331.742188 344.515625 C 331.84375 343.484375 331.894531 342.453125 331.894531 341.414062 L 331.894531 176.789062 C 331.894531 159.613281 318.148438 145.710938 301.046875 145.253906 Z M 213.695312 236.351562 C 213.554688 237.332031 213.007812 239.566406 212.953125 239.738281 C 211.019531 246.429688 206.394531 251.921875 200.390625 255.261719 L 210.566406 298.542969 C 210.710938 298.988281 210.804688 299.445312 210.84375 299.914062 C 210.886719 300.382812 210.871094 300.851562 210.800781 301.316406 C 210.730469 301.78125 210.609375 302.230469 210.433594 302.667969 C 210.257812 303.101562 210.035156 303.511719 209.761719 303.898438 C 209.492188 304.28125 209.179688 304.628906 208.824219 304.941406 C 208.472656 305.25 208.085938 305.515625 207.671875 305.738281 C 207.253906 305.957031 206.820312 306.128906 206.363281 306.246094 C 205.90625 306.367188 205.445312 306.433594 204.972656 306.441406 L 171.257812 306.441406 C 170.785156 306.433594 170.324219 306.367188 169.867188 306.25 C 169.410156 306.128906 168.976562 305.960938 168.558594 305.738281 C 168.144531 305.515625 167.757812 305.25 167.40625 304.941406 C 167.050781 304.628906 166.738281 304.28125 166.46875 303.898438 C 166.195312 303.511719 165.972656 303.101562 165.796875 302.667969 C 165.621094 302.230469 165.5 301.78125 165.429688 301.316406 C 165.359375 300.851562 165.347656 300.382812 165.386719 299.914062 C 165.425781 299.445312 165.519531 298.988281 165.667969 298.542969 L 175.152344 255.261719 C 169.144531 251.921875 164.519531 246.429688 162.585938 239.738281 C 162.535156 239.566406 161.984375 237.332031 161.84375 236.351562 C 161.664062 235.144531 161.574219 233.929688 161.574219 232.707031 C 161.574219 231.851562 161.613281 230.996094 161.699219 230.144531 C 161.78125 229.292969 161.90625 228.445312 162.074219 227.605469 C 162.242188 226.765625 162.449219 225.9375 162.699219 225.117188 C 162.949219 224.296875 163.238281 223.492188 163.566406 222.703125 C 163.894531 221.910156 164.257812 221.136719 164.664062 220.382812 C 165.066406 219.628906 165.507812 218.894531 165.984375 218.183594 C 166.460938 217.46875 166.972656 216.78125 167.515625 216.121094 C 168.058594 215.457031 168.636719 214.824219 169.242188 214.21875 C 169.847656 213.613281 170.484375 213.039062 171.148438 212.496094 C 171.8125 211.953125 172.5 211.445312 173.210938 210.96875 C 173.925781 210.492188 174.660156 210.050781 175.417969 209.648438 C 176.175781 209.246094 176.949219 208.878906 177.742188 208.550781 C 178.535156 208.222656 179.34375 207.933594 180.164062 207.6875 C 180.984375 207.4375 181.816406 207.230469 182.65625 207.0625 C 183.5 206.894531 184.347656 206.769531 185.203125 206.6875 C 186.054688 206.601562 186.910156 206.5625 187.769531 206.5625 C 188.628906 206.5625 189.484375 206.601562 190.339844 206.6875 C 191.191406 206.769531 192.039062 206.894531 192.882812 207.0625 C 193.722656 207.230469 194.554688 207.4375 195.375 207.6875 C 196.195312 207.933594 197.003906 208.222656 197.796875 208.550781 C 198.589844 208.878906 199.363281 209.246094 200.121094 209.648438 C 200.878906 210.050781 201.613281 210.492188 202.328125 210.96875 C 203.039062 211.445312 203.726562 211.953125 204.390625 212.496094 C 205.054688 213.039062 205.691406 213.613281 206.296875 214.21875 C 206.902344 214.824219 207.480469 215.457031 208.023438 216.121094 C 208.566406 216.78125 209.078125 217.46875 209.554688 218.183594 C 210.03125 218.894531 210.472656 219.628906 210.875 220.382812 C 211.28125 221.136719 211.644531 221.910156 211.972656 222.703125 C 212.304688 223.492188 212.589844 224.296875 212.839844 225.117188 C 213.089844 225.9375 213.296875 226.765625 213.464844 227.605469 C 213.632812 228.445312 213.757812 229.292969 213.839844 230.144531 C 213.925781 230.996094 213.964844 231.851562 213.964844 232.707031 C 213.964844 233.929688 213.875 235.144531 213.695312 236.351562 Z M 262.367188 145.164062 L 113.167969 145.164062 L 113.167969 114.792969 C 113.167969 73.742188 146.621094 40.351562 187.777344 40.351562 C 228.933594 40.351562 262.367188 73.742188 262.367188 114.792969 Z M 262.367188 145.164062 " fill-opacity="1" fill-rule="nonzero"/></g><g clip-path="url(#d0934f260f)"><path fill="#000000" d="M 113.574219 199.136719 L 275.285156 199.136719 L 275.285156 323.828125 L 113.574219 323.828125 Z M 113.574219 199.136719 " fill-opacity="1" fill-rule="nonzero"/></g><g fill="#ffffff" fill-opacity="1"><g transform="translate(138.610073, 320.743156)"><g><path d="M 25.8125 -4.21875 C 25.8125 -2.34375 25.222656 -0.910156 24.046875 0.078125 C 22.878906 1.078125 21.503906 1.578125 19.921875 1.578125 C 18.347656 1.578125 16.972656 1.078125 15.796875 0.078125 C 14.628906 -0.910156 14.046875 -2.34375 14.046875 -4.21875 L 14.046875 -121.15625 C 14.046875 -122.90625 14.628906 -124.335938 15.796875 -125.453125 C 16.972656 -126.566406 18.320312 -127.125 19.84375 -127.125 L 66.1875 -127.125 C 73.800781 -127.125 80.328125 -125.628906 85.765625 -122.640625 C 91.210938 -119.660156 95.546875 -115.738281 98.765625 -110.875 C 101.984375 -106.019531 104.144531 -100.664062 105.25 -94.8125 C 106.363281 -88.957031 106.363281 -83.132812 105.25 -77.34375 C 104.144531 -71.550781 101.953125 -66.222656 98.671875 -61.359375 C 95.398438 -56.503906 91.070312 -52.582031 85.6875 -49.59375 C 80.300781 -46.613281 73.800781 -45.125 66.1875 -45.125 L 49.34375 -45.125 L 49.34375 -4.21875 C 49.34375 -2.34375 48.726562 -0.910156 47.5 0.078125 C 46.269531 1.078125 44.890625 1.578125 43.359375 1.578125 C 41.835938 1.578125 40.460938 1.078125 39.234375 0.078125 C 38.003906 -0.910156 37.390625 -2.34375 37.390625 -4.21875 L 37.390625 -51.09375 C 37.390625 -52.726562 38.003906 -54.101562 39.234375 -55.21875 C 40.460938 -56.332031 41.84375 -56.890625 43.375 -56.890625 L 66.1875 -56.890625 C 72.507812 -56.890625 77.75 -58.289062 81.90625 -61.09375 C 86.0625 -63.90625 89.191406 -67.535156 91.296875 -71.984375 C 93.410156 -76.429688 94.46875 -81.171875 94.46875 -86.203125 C 94.46875 -91.242188 93.410156 -95.988281 91.296875 -100.4375 C 89.191406 -104.882812 86.0625 -108.507812 81.90625 -111.3125 C 77.75 -114.125 72.507812 -115.53125 66.1875 -115.53125 L 25.8125 -115.53125 Z M 64.09375 -68.65625 C 62.5625 -68.65625 60.832031 -68.65625 58.90625 -68.65625 C 56.976562 -68.65625 55.28125 -69.035156 53.8125 -69.796875 C 52.351562 -70.554688 51.625 -72.101562 51.625 -74.4375 C 51.625 -76.894531 52.351562 -78.503906 53.8125 -79.265625 C 55.28125 -80.035156 56.976562 -80.390625 58.90625 -80.328125 C 60.832031 -80.265625 62.5625 -80.234375 64.09375 -80.234375 C 66.082031 -80.234375 67.601562 -80.816406 68.65625 -81.984375 C 69.707031 -83.160156 70.234375 -84.535156 70.234375 -86.109375 C 70.234375 -87.691406 69.707031 -89.066406 68.65625 -90.234375 C 67.601562 -91.410156 66.082031 -92 64.09375 -92 L 43.375 -92 C 41.5 -92 40.0625 -92.582031 39.0625 -93.75 C 38.070312 -94.925781 37.578125 -96.300781 37.578125 -97.875 C 37.578125 -99.457031 38.070312 -100.832031 39.0625 -102 C 40.0625 -103.175781 41.5 -103.765625 43.375 -103.765625 L 64.09375 -103.765625 C 68.769531 -103.765625 72.507812 -102.59375 75.3125 -100.25 C 78.125 -97.914062 80.023438 -94.988281 81.015625 -91.46875 C 82.015625 -87.957031 82.015625 -84.445312 81.015625 -80.9375 C 80.023438 -77.425781 78.125 -74.5 75.3125 -72.15625 C 72.507812 -69.820312 68.769531 -68.65625 64.09375 -68.65625 Z M 64.09375 -68.65625 "/></g></g></g></svg>