<svg xmlns="http://www.w3.org/2000/svg" xmlns:xlink="http://www.w3.org/1999/xlink" width="500" zoomAndPan="magnify" viewBox="0 0 375 374.999991" height="500" preserveAspectRatio="xMidYMid meet" version="1.0"><defs><g/><clipPath id="4872cf9028"><path d="M 2.785156 2.785156 L 372.214844 2.785156 L 372.214844 372.214844 L 2.785156 372.214844 Z M 2.785156 2.785156 " clip-rule="nonzero"/></clipPath><clipPath id="7ac3d11f9a"><path d="M 187.5 2.785156 C 85.484375 2.785156 2.785156 85.484375 2.785156 187.5 C 2.785156 289.515625 85.484375 372.214844 187.5 372.214844 C 289.515625 372.214844 372.214844 289.515625 372.214844 187.5 C 372.214844 85.484375 289.515625 2.785156 187.5 2.785156 Z M 187.5 2.785156 " clip-rule="nonzero"/></clipPath></defs><g clip-path="url(#4872cf9028)"><g clip-path="url(#7ac3d11f9a)"><path fill="#000000" d="M 2.785156 2.785156 L 372.214844 2.785156 L 372.214844 372.214844 L 2.785156 372.214844 Z M 2.785156 2.785156 " fill-opacity="1" fill-rule="nonzero"/></g></g><g fill="#ffffff" fill-opacity="1"><g transform="translate(122.518487, 264.178108)"><g><path d="M 34.3125 -5.59375 C 34.3125 -3.101562 33.53125 -1.203125 31.96875 0.109375 C 30.414062 1.429688 28.585938 2.09375 26.484375 2.09375 C 24.390625 2.09375 22.5625 1.429688 21 0.109375 C 19.445312 -1.203125 18.671875 -3.101562 18.671875 -5.59375 L 18.671875 -161.03125 C 18.671875 -163.363281 19.445312 -165.269531 21 -166.75 C 22.5625 -168.226562 24.351562 -168.96875 26.375 -168.96875 L 87.984375 -168.96875 C 98.097656 -168.96875 106.769531 -166.984375 114 -163.015625 C 121.238281 -159.046875 126.992188 -153.832031 131.265625 -147.375 C 135.546875 -140.914062 138.425781 -133.796875 139.90625 -126.015625 C 141.382812 -118.242188 141.382812 -110.503906 139.90625 -102.796875 C 138.425781 -95.097656 135.507812 -88.019531 131.15625 -81.5625 C 126.800781 -75.101562 121.046875 -69.890625 113.890625 -65.921875 C 106.734375 -61.960938 98.097656 -59.984375 87.984375 -59.984375 L 65.578125 -59.984375 L 65.578125 -5.59375 C 65.578125 -3.101562 64.757812 -1.203125 63.125 0.109375 C 61.488281 1.429688 59.660156 2.09375 57.640625 2.09375 C 55.617188 2.09375 53.789062 1.429688 52.15625 0.109375 C 50.519531 -1.203125 49.703125 -3.101562 49.703125 -5.59375 L 49.703125 -67.90625 C 49.703125 -70.082031 50.519531 -71.910156 52.15625 -73.390625 C 53.789062 -74.867188 55.617188 -75.609375 57.640625 -75.609375 L 87.984375 -75.609375 C 96.378906 -75.609375 103.335938 -77.472656 108.859375 -81.203125 C 114.390625 -84.941406 118.554688 -89.765625 121.359375 -95.671875 C 124.160156 -101.585938 125.5625 -107.890625 125.5625 -114.578125 C 125.5625 -121.273438 124.160156 -127.578125 121.359375 -133.484375 C 118.554688 -139.398438 114.390625 -144.222656 108.859375 -147.953125 C 103.335938 -151.691406 96.378906 -153.5625 87.984375 -153.5625 L 34.3125 -153.5625 Z M 85.1875 -91.25 C 83.15625 -91.25 80.859375 -91.25 78.296875 -91.25 C 75.734375 -91.25 73.476562 -91.753906 71.53125 -92.765625 C 69.582031 -93.773438 68.609375 -95.835938 68.609375 -98.953125 C 68.609375 -102.222656 69.582031 -104.363281 71.53125 -105.375 C 73.476562 -106.382812 75.734375 -106.847656 78.296875 -106.765625 C 80.859375 -106.691406 83.15625 -106.65625 85.1875 -106.65625 C 87.832031 -106.65625 89.851562 -107.429688 91.25 -108.984375 C 92.644531 -110.535156 93.34375 -112.363281 93.34375 -114.46875 C 93.34375 -116.570312 92.644531 -118.398438 91.25 -119.953125 C 89.851562 -121.503906 87.832031 -122.28125 85.1875 -122.28125 L 57.640625 -122.28125 C 55.148438 -122.28125 53.242188 -123.054688 51.921875 -124.609375 C 50.597656 -126.171875 49.9375 -128 49.9375 -130.09375 C 49.9375 -132.195312 50.597656 -134.023438 51.921875 -135.578125 C 53.242188 -137.140625 55.148438 -137.921875 57.640625 -137.921875 L 85.1875 -137.921875 C 91.40625 -137.921875 96.378906 -136.363281 100.109375 -133.25 C 103.847656 -130.144531 106.378906 -126.257812 107.703125 -121.59375 C 109.023438 -116.925781 109.023438 -112.253906 107.703125 -107.578125 C 106.378906 -102.910156 103.847656 -99.019531 100.109375 -95.90625 C 96.378906 -92.800781 91.40625 -91.25 85.1875 -91.25 Z M 85.1875 -91.25 "/></g></g></g></svg>